
            <svg data-logo="logo" xmlns="http://www.w3.org/2000/svg" viewBox="0 0 261 40">
                <g id="logogram" transform="translate(0, 0)"><path d="M68.75 0H96.25L72.5 40H45L68.75 0Z" fill="#004CFF"/><path d="M43.75 0H63.75L40 40H20L43.75 0Z" fill="#3F9BFD"/><path d="M23.75 0H38.75L15 40H0L23.75 0Z" fill="#85C0FF"/></g>
                <g id="logotype" transform="translate(98, 2.5)"><path fill="#111111" d="M26.10 18.20L19.48 18.20Q18.82 16.97 17.57 16.33Q16.33 15.68 14.65 15.68L14.65 15.68Q11.75 15.68 10.00 17.59Q8.25 19.49 8.25 22.68L8.25 22.68Q8.25 26.07 10.08 27.98Q11.92 29.89 15.14 29.89L15.14 29.89Q17.35 29.89 18.87 28.77Q20.39 27.65 21.09 25.55L21.09 25.55L13.50 25.55L13.50 21.14L26.52 21.14L26.52 26.70Q25.85 28.95 24.26 30.87Q22.67 32.80 20.22 33.98Q17.77 35.17 14.69 35.17L14.69 35.17Q11.05 35.17 8.19 33.58Q5.34 31.99 3.75 29.16Q2.16 26.32 2.16 22.68L2.16 22.68Q2.16 19.04 3.75 16.19Q5.34 13.33 8.18 11.74Q11.01 10.15 14.65 10.15L14.65 10.15Q19.06 10.15 22.09 12.28Q25.12 14.42 26.10 18.20L26.10 18.20ZM35.16 35.28Q32.29 35.28 30.00 34.05Q27.71 32.83 26.39 30.55Q25.08 28.28 25.08 25.23L25.08 25.23Q25.08 22.23 26.41 19.93Q27.74 17.64 30.05 16.41Q32.36 15.19 35.23 15.19L35.23 15.19Q38.10 15.19 40.41 16.41Q42.72 17.64 44.05 19.93Q45.38 22.23 45.38 25.23L45.38 25.23Q45.38 28.24 44.03 30.54Q42.69 32.83 40.36 34.05Q38.03 35.28 35.16 35.28L35.16 35.28ZM35.16 30.10Q36.88 30.10 38.08 28.84Q39.29 27.58 39.29 25.23L39.29 25.23Q39.29 22.89 38.12 21.63Q36.95 20.37 35.23 20.37L35.23 20.37Q33.48 20.37 32.33 21.61Q31.17 22.85 31.17 25.23L31.17 25.23Q31.17 27.58 32.31 28.84Q33.45 30.10 35.16 30.10L35.16 30.10ZM43.80 25.20Q43.80 22.19 44.94 19.91Q46.08 17.64 48.04 16.41Q50 15.19 52.42 15.19L52.42 15.19Q54.34 15.19 55.93 15.99Q57.53 16.80 58.44 18.16L58.44 18.16L58.44 9.10L64.42 9.10L64.42 35L58.44 35L58.44 32.20Q57.60 33.60 56.04 34.44Q54.48 35.28 52.42 35.28L52.42 35.28Q50 35.28 48.04 34.04Q46.08 32.80 44.94 30.50Q43.80 28.21 43.80 25.20L43.80 25.20ZM58.44 25.23Q58.44 22.99 57.19 21.70Q55.95 20.41 54.17 20.41L54.17 20.41Q52.38 20.41 51.14 21.68Q49.90 22.96 49.90 25.20L49.90 25.20Q49.90 27.44 51.14 28.75Q52.38 30.06 54.17 30.06L54.17 30.06Q55.95 30.06 57.19 28.77Q58.44 27.48 58.44 25.23L58.44 25.23ZM83.60 24.92Q83.60 25.76 83.50 26.67L83.50 26.67L69.95 26.67Q70.09 28.49 71.12 29.45Q72.16 30.41 73.66 30.41L73.66 30.41Q75.90 30.41 76.78 28.52L76.78 28.52L83.15 28.52Q82.66 30.45 81.38 31.99Q80.10 33.53 78.18 34.41Q76.25 35.28 73.87 35.28L73.87 35.28Q71 35.28 68.76 34.05Q66.52 32.83 65.26 30.55Q64 28.28 64 25.23L64 25.23Q64 22.19 65.24 19.91Q66.48 17.64 68.73 16.41Q70.97 15.19 73.87 15.19L73.87 15.19Q76.70 15.19 78.91 16.38Q81.12 17.57 82.36 19.77Q83.60 21.98 83.60 24.92L83.60 24.92ZM69.98 23.34L77.48 23.34Q77.48 21.80 76.43 20.89Q75.38 19.98 73.80 19.98L73.80 19.98Q72.30 19.98 71.26 20.86Q70.23 21.73 69.98 23.34L69.98 23.34ZM81.99 25.20Q81.99 22.19 83.13 19.91Q84.27 17.64 86.23 16.41Q88.19 15.19 90.60 15.19L90.60 15.19Q92.67 15.19 94.22 16.03Q95.78 16.87 96.62 18.23L96.62 18.23L96.62 15.47L102.61 15.47L102.61 35L96.62 35L96.62 32.23Q95.75 33.60 94.19 34.44Q92.63 35.28 90.57 35.28L90.57 35.28Q88.19 35.28 86.23 34.04Q84.27 32.80 83.13 30.50Q81.99 28.21 81.99 25.20L81.99 25.20ZM96.62 25.23Q96.62 22.99 95.38 21.70Q94.14 20.41 92.35 20.41L92.35 20.41Q90.57 20.41 89.32 21.68Q88.08 22.96 88.08 25.20L88.08 25.20Q88.08 27.44 89.32 28.75Q90.57 30.06 92.35 30.06L92.35 30.06Q94.14 30.06 95.38 28.77Q96.62 27.48 96.62 25.23L96.62 25.23ZM115.28 15.26Q118.71 15.26 120.75 17.48Q122.80 19.70 122.80 23.59L122.80 23.59L122.80 35L116.85 35L116.85 24.39Q116.85 22.43 115.84 21.35Q114.82 20.27 113.11 20.27L113.11 20.27Q111.39 20.27 110.38 21.35Q109.36 22.43 109.36 24.39L109.36 24.39L109.36 35L103.38 35L103.38 15.47L109.36 15.47L109.36 18.06Q110.27 16.76 111.81 16.01Q113.35 15.26 115.28 15.26L115.28 15.26ZM122.80 21.88Q122.80 15.85 125.13 12.39Q127.46 8.92 132.64 8.92L132.64 8.92Q137.82 8.92 140.14 12.39Q142.47 15.85 142.47 21.88L142.47 21.88Q142.47 27.96 140.14 31.43Q137.82 34.90 132.64 34.90L132.64 34.90Q127.46 34.90 125.13 31.43Q122.80 27.96 122.80 21.88L122.80 21.88ZM136.59 21.88Q136.59 18.34 135.82 16.43Q135.05 14.52 132.64 14.52L132.64 14.52Q130.22 14.52 129.45 16.43Q128.68 18.34 128.68 21.88L128.68 21.88Q128.68 24.25 128.96 25.81Q129.24 27.37 130.10 28.33Q130.96 29.29 132.64 29.29L132.64 29.29Q134.32 29.29 135.17 28.33Q136.03 27.37 136.31 25.81Q136.59 24.25 136.59 21.88L136.59 21.88ZM160.04 9.41L160.04 14.66L149.12 14.66L149.12 19.49Q149.82 18.72 151.08 18.23Q152.34 17.74 153.81 17.74L153.81 17.74Q156.44 17.74 158.17 18.93Q159.90 20.13 160.71 22.02Q161.51 23.91 161.51 26.11L161.51 26.11Q161.51 30.20 159.20 32.60Q156.89 35 152.69 35L152.69 35Q149.89 35 147.83 34.04Q145.76 33.08 144.64 31.36Q143.52 29.64 143.42 27.41L143.42 27.41L149.26 27.41Q149.47 28.49 150.28 29.21Q151.08 29.93 152.48 29.93L152.48 29.93Q154.13 29.93 154.93 28.88Q155.74 27.82 155.74 26.07L155.74 26.07Q155.74 24.36 154.90 23.45Q154.06 22.54 152.45 22.54L152.45 22.54Q151.26 22.54 150.49 23.12Q149.72 23.70 149.47 24.64L149.47 24.64L143.70 24.64L143.70 9.41L160.04 9.41Z"/></g>
                
            </svg>
        